<svg width="1998" height="1074" viewBox="0 0 1998 1074" fill="none" xmlns="http://www.w3.org/2000/svg">
<path d="M1628.42 959.621H280.772L586.887 341.621H1998L1628.42 959.621Z" fill="#1466E1"/>
<path d="M1609.42 76.5269H261.772L567.887 694.527H1979L1609.42 76.5269Z" fill="#D46924"/>
<path d="M1609.65 77H262L568.115 695H1979.23L1609.65 77Z" fill="#D46900"/>
<path d="M552.518 420.339V503H504.178V268.391H595.701C613.318 268.391 628.787 271.613 642.107 278.059C655.535 284.504 665.848 293.688 673.045 305.612C680.242 317.429 683.841 330.91 683.841 346.057C683.841 369.045 675.945 387.199 660.154 400.52C644.471 413.732 622.718 420.339 594.896 420.339H552.518ZM552.518 381.184H595.701C608.484 381.184 618.206 378.176 624.866 372.16C631.634 366.145 635.018 357.551 635.018 346.379C635.018 334.885 631.634 325.593 624.866 318.503C618.099 311.413 608.753 307.761 596.829 307.546H552.518V381.184ZM768.597 503H720.257V268.391H768.597V503ZM887.029 408.898L861.893 435.969V503H813.553V268.391H861.893V374.738L883.162 345.573L942.942 268.391H1002.4L919.095 372.644L1004.82 503H947.293L887.029 408.898ZM1199.63 307.546H1127.76V503H1079.42V307.546H1008.52V268.391H1199.63V307.546ZM1368.49 401.325H1275.68V464.167H1384.61V503H1227.34V268.391H1384.29V307.546H1275.68V363.459H1368.49V401.325ZM1595.69 435.324L1627.27 268.391H1675.45L1623.41 503H1574.74L1536.56 346.057L1498.37 503H1449.71L1397.66 268.391H1445.84L1477.58 435.002L1516.25 268.391H1557.18L1595.69 435.324Z" fill="white"/>
<path d="M83.5186 639.661C83.5186 594.196 89.5537 550.542 101.624 508.698C113.896 466.854 132.102 428.833 156.242 394.634C180.383 360.435 205.429 336.294 231.38 322.212L242.847 359.026C213.476 381.558 189.335 415.958 170.425 462.228C151.716 508.497 141.456 560.299 139.646 617.633L139.344 643.282C139.344 720.935 153.526 788.327 181.892 845.46C198.991 879.659 219.31 906.415 242.847 925.728L231.38 959.826C204.624 944.939 179.075 919.994 154.733 884.99C107.257 816.592 83.5186 734.815 83.5186 639.661Z" fill="white"/>
<path d="M318.671 397.679C318.671 442.54 312.736 485.591 300.867 526.831C289.199 567.87 271.194 605.791 246.853 640.594C222.712 675.396 197.364 700.141 170.81 714.826L159.041 680.728C190.021 656.989 214.866 620.175 233.575 570.284C252.485 520.192 262.142 464.669 262.544 403.714V394.058C262.544 351.812 258.118 312.583 249.267 276.372C240.415 239.96 228.043 207.37 212.15 178.603C196.459 149.835 178.756 127.404 159.041 111.311L170.81 77.2119C197.364 91.8975 222.611 116.44 246.551 150.841C270.691 185.241 288.696 223.162 300.565 264.604C312.636 306.045 318.671 350.403 318.671 397.679Z" fill="white"/>
<path d="M595.969 859.561C595.969 854.303 594.113 850.283 590.402 847.5C586.691 844.655 580.012 841.686 570.363 838.594C560.715 835.439 553.076 832.347 547.448 829.316C532.11 821.029 524.44 809.865 524.44 795.825C524.44 788.527 526.481 782.033 530.563 776.343C534.707 770.591 540.614 766.107 548.283 762.891C556.014 759.674 564.673 758.066 574.26 758.066C583.908 758.066 592.505 759.829 600.051 763.354C607.596 766.818 613.441 771.735 617.585 778.105C621.791 784.476 623.894 791.712 623.894 799.814H596.062C596.062 793.63 594.113 788.836 590.217 785.435C586.32 781.971 580.847 780.239 573.796 780.239C566.993 780.239 561.704 781.693 557.932 784.6C554.159 787.445 552.272 791.217 552.272 795.918C552.272 800.309 554.468 803.989 558.859 806.958C563.312 809.927 569.838 812.71 578.435 815.308C594.268 820.07 605.803 825.977 613.039 833.027C620.275 840.078 623.894 848.861 623.894 859.375C623.894 871.064 619.471 880.249 610.627 886.929C601.783 893.547 589.877 896.855 574.909 896.855C564.519 896.855 555.056 894.969 546.521 891.196C537.985 887.362 531.46 882.135 526.945 875.518C522.492 868.9 520.266 861.23 520.266 852.51H548.19C548.19 867.415 557.097 874.868 574.909 874.868C581.527 874.868 586.691 873.538 590.402 870.879C594.113 868.158 595.969 864.385 595.969 859.561ZM753.776 830.522C753.776 843.82 751.426 855.479 746.726 865.498C742.025 875.518 735.284 883.249 726.501 888.691C717.78 894.134 707.761 896.855 696.442 896.855C685.248 896.855 675.259 894.165 666.477 888.784C657.694 883.403 650.891 875.734 646.066 865.776C641.242 855.757 638.799 844.253 638.737 831.265V824.585C638.737 811.287 641.118 799.598 645.881 789.517C650.705 779.373 657.478 771.611 666.198 766.23C674.981 760.788 685 758.066 696.257 758.066C707.513 758.066 717.502 760.788 726.223 766.23C735.005 771.611 741.778 779.373 746.54 789.517C751.364 799.598 753.776 811.257 753.776 824.492V830.522ZM725.573 824.399C725.573 810.236 723.037 799.474 717.966 792.114C712.894 784.754 705.658 781.074 696.257 781.074C686.918 781.074 679.712 784.723 674.641 792.021C669.569 799.258 667.002 809.896 666.94 823.936V830.522C666.94 844.315 669.476 855.015 674.548 862.622C679.619 870.229 686.918 874.033 696.442 874.033C705.782 874.033 712.956 870.384 717.966 863.086C722.976 855.726 725.511 845.026 725.573 830.986V824.399ZM855.271 839.8H801.833V895H774.001V759.922H861.95V782.466H801.833V817.349H855.271V839.8ZM981.628 782.466H940.251V895H912.419V782.466H871.599V759.922H981.628V782.466ZM1104.27 856.035L1122.46 759.922H1150.2L1120.23 895H1092.21L1070.23 804.639L1048.24 895H1020.22L990.256 759.922H1018L1036.27 855.85L1058.54 759.922H1082.1L1104.27 856.035ZM1237.5 867.168H1188.7L1179.42 895H1149.83L1200.11 759.922H1225.9L1276.46 895H1246.87L1237.5 867.168ZM1196.21 844.624H1229.98L1213 794.062L1196.21 844.624ZM1339.08 845.552H1316.91V895H1289.08V759.922H1339.27C1355.23 759.922 1367.53 763.478 1376.19 770.591C1384.85 777.703 1389.18 787.754 1389.18 800.742C1389.18 809.958 1387.17 817.658 1383.15 823.843C1379.19 829.966 1373.16 834.852 1365.06 838.501L1394.28 893.701V895H1364.41L1339.08 845.552ZM1316.91 823.008H1339.36C1346.35 823.008 1351.76 821.245 1355.6 817.72C1359.43 814.132 1361.35 809.215 1361.35 802.969C1361.35 796.598 1359.53 791.589 1355.88 787.939C1352.29 784.29 1346.75 782.466 1339.27 782.466H1316.91V823.008ZM1491.7 836.46H1438.26V872.642H1500.97V895H1410.43V759.922H1500.79V782.466H1438.26V814.658H1491.7V836.46ZM1587.35 859.561C1587.35 854.303 1585.49 850.283 1581.78 847.5C1578.07 844.655 1571.39 841.686 1561.74 838.594C1552.09 835.439 1544.45 832.347 1538.83 829.316C1523.49 821.029 1515.82 809.865 1515.82 795.825C1515.82 788.527 1517.86 782.033 1521.94 776.343C1526.08 770.591 1531.99 766.107 1539.66 762.891C1547.39 759.674 1556.05 758.066 1565.64 758.066C1575.29 758.066 1583.88 759.829 1591.43 763.354C1598.97 766.818 1604.82 771.735 1608.96 778.105C1613.17 784.476 1615.27 791.712 1615.27 799.814H1587.44C1587.44 793.63 1585.49 788.836 1581.59 785.435C1577.7 781.971 1572.22 780.239 1565.17 780.239C1558.37 780.239 1553.08 781.693 1549.31 784.6C1545.54 787.445 1543.65 791.217 1543.65 795.918C1543.65 800.309 1545.85 803.989 1550.24 806.958C1554.69 809.927 1561.21 812.71 1569.81 815.308C1585.64 820.07 1597.18 825.977 1604.42 833.027C1611.65 840.078 1615.27 848.861 1615.27 859.375C1615.27 871.064 1610.85 880.249 1602 886.929C1593.16 893.547 1581.25 896.855 1566.29 896.855C1555.9 896.855 1546.43 894.969 1537.9 891.196C1529.36 887.362 1522.84 882.135 1518.32 875.518C1513.87 868.9 1511.64 861.23 1511.64 852.51H1539.57C1539.57 867.415 1548.47 874.868 1566.29 874.868C1572.9 874.868 1578.07 873.538 1581.78 870.879C1585.49 868.158 1587.35 864.385 1587.35 859.561Z" fill="white"/>
</svg>
