<svg width="408" height="428" viewBox="0 0 408 428" fill="none" xmlns="http://www.w3.org/2000/svg">
<path d="M72.375 153.906C56.9362 153.906 44.4062 166.436 44.4062 181.875C44.4062 197.314 56.9362 209.844 72.375 209.844C87.8137 209.844 100.344 197.314 100.344 181.875C100.344 166.436 87.8137 153.906 72.375 153.906ZM206.625 153.906C191.186 153.906 178.656 166.436 178.656 181.875C178.656 197.314 191.186 209.844 206.625 209.844C222.064 209.844 234.594 197.314 234.594 181.875C234.594 166.436 222.064 153.906 206.625 153.906ZM139.5 -64.25C15.99 -64.25 -84.25 35.99 -84.25 159.5C-84.25 283.01 15.99 383.25 139.5 383.25C263.01 383.25 363.25 283.01 363.25 159.5C363.25 35.99 263.01 -64.25 139.5 -64.25ZM139.5 338.5C40.8262 338.5 -39.5 258.174 -39.5 159.5C-39.5 153.011 -39.0525 146.522 -38.3812 140.257C14.4237 116.764 56.265 73.58 78.1925 20.1037C118.691 77.3837 185.369 114.75 260.772 114.75C278.225 114.75 295.006 112.736 311.116 108.932C315.815 124.819 318.5 141.824 318.5 159.5C318.5 258.174 238.174 338.5 139.5 338.5Z" fill="white"/>
</svg>
